<svg width="20" height="21" viewBox="0 0 20 21" fill="none" xmlns="http://www.w3.org/2000/svg">
<path d="M12.5 13H16.6667C17.1269 13 17.5 12.6269 17.5 12.1667V3.83333C17.5 3.3731 17.1269 3 16.6667 3L8.33333 3C7.8731 3 7.5 3.3731 7.5 3.83333L7.5 8" stroke="white" stroke-width="2" stroke-linecap="round" stroke-linejoin="round"/>
<path d="M3.33333 18L11.6667 18C12.1269 18 12.5 17.6269 12.5 17.1667L12.5 8.83333C12.5 8.3731 12.1269 8 11.6667 8L3.33333 8C2.8731 8 2.5 8.3731 2.5 8.83333L2.5 17.1667C2.5 17.6269 2.8731 18 3.33333 18Z" stroke="white" stroke-width="2" stroke-linecap="round" stroke-linejoin="round"/>
</svg>
