<svg width="20" height="21" viewBox="0 0 20 21" fill="none" xmlns="http://www.w3.org/2000/svg">
<path d="M10 13.8333C11.841 13.8333 13.3333 12.3409 13.3333 10.5C13.3333 8.65904 11.841 7.16666 10 7.16666C8.15906 7.16666 6.66667 8.65904 6.66667 10.5C6.66667 12.3409 8.15906 13.8333 10 13.8333Z" stroke="white" stroke-width="2" stroke-linecap="round" stroke-linejoin="round"/>
<path d="M15.9726 7.1167L15.9178 7.02182C15.7666 6.76014 15.6895 6.46229 15.6945 6.16013L15.7195 4.67778C15.7246 4.37484 15.5649 4.093 15.3023 3.94173L13.0218 2.62756C12.7599 2.47666 12.4369 2.47937 12.1776 2.63462L10.9117 3.39261C10.653 3.54753 10.3571 3.62935 10.0555 3.62935H9.94576C9.64354 3.62935 9.34701 3.54717 9.0879 3.39162L7.81618 2.62814C7.55597 2.47193 7.23142 2.46953 6.96894 2.62187L4.69562 3.94128C4.43437 4.09291 4.27563 4.37403 4.28071 4.67604L4.30568 6.16013C4.31076 6.46229 4.2336 6.76014 4.08244 7.02182L4.02837 7.11543C3.87713 7.37726 3.65751 7.593 3.39304 7.73956L2.0973 8.45762C1.83172 8.6048 1.6672 8.88478 1.66789 9.18841L1.67386 11.8149C1.67455 12.1167 1.83834 12.3946 2.10207 12.5413L3.39159 13.2586C3.65696 13.4063 3.87696 13.6236 4.02782 13.8871L4.08575 13.9884C4.23478 14.2487 4.31078 14.5445 4.30571 14.8444L4.28077 16.3221C4.27565 16.625 4.43538 16.9069 4.69791 17.0582L6.97844 18.3723C7.24029 18.5232 7.56332 18.5205 7.82261 18.3652L9.08851 17.6073C9.34724 17.4523 9.64315 17.3705 9.94472 17.3705H10.0545C10.3567 17.3705 10.6532 17.4527 10.9123 17.6083L12.184 18.3717C12.4442 18.5279 12.7688 18.5303 13.0313 18.378L15.3046 17.0586C15.5658 16.907 15.7246 16.6258 15.7195 16.3238L15.6945 14.8397C15.6895 14.5376 15.7666 14.2397 15.9178 13.978L15.9719 13.8844C16.1231 13.6226 16.3427 13.4069 16.6072 13.2603L17.9029 12.5422C18.1685 12.3951 18.333 12.1151 18.3323 11.8115L18.3264 9.18494C18.3257 8.88315 18.1619 8.60532 17.8982 8.4586L16.6055 7.73951C16.3421 7.59297 16.1234 7.37772 15.9726 7.1167Z" stroke="white" stroke-width="2" stroke-linecap="round" stroke-linejoin="round"/>
</svg>
