<svg width="20" height="21" viewBox="0 0 20 21" fill="none" xmlns="http://www.w3.org/2000/svg">
<path fill-rule="evenodd" clip-rule="evenodd" d="M10 0.5C4.47715 0.5 0 4.97715 0 10.5C0 16.0228 4.47715 20.5 10 20.5C15.5228 20.5 20 16.0228 20 10.5C20 4.97715 15.5228 0.5 10 0.5ZM9.72149 8.97415L9.7005 8.62812C9.63755 7.73129 10.1901 6.91213 11.0645 6.59436C11.3862 6.48137 11.9318 6.46725 12.2886 6.56611C12.4285 6.60848 12.6943 6.74971 12.8831 6.87682L13.2259 7.10986L13.6036 6.98981C13.8134 6.92626 14.0932 6.82033 14.2191 6.74971C14.338 6.68616 14.443 6.65085 14.443 6.67204C14.443 6.79208 14.1842 7.20166 13.9673 7.42764C13.6735 7.74541 13.7575 7.77366 14.352 7.56181C14.7088 7.44176 14.7158 7.44176 14.6458 7.57593C14.6039 7.64655 14.387 7.89371 14.1562 8.11968C13.7645 8.50807 13.7435 8.55044 13.7435 8.87528C13.7435 9.37666 13.5057 10.4218 13.2678 10.9938C12.8272 12.0672 11.8829 13.1758 10.9386 13.7337C9.60957 14.5176 7.83989 14.7153 6.35 14.2563C5.85336 14.1009 5 13.7055 5 13.6349C5 13.6137 5.25881 13.5854 5.57357 13.5784C6.23108 13.5642 6.88859 13.3806 7.44818 13.0558L7.8259 12.8298L7.39222 12.6815C6.77668 12.4697 6.22409 11.9824 6.08419 11.5234C6.04222 11.3751 6.05621 11.3681 6.44792 11.3681L6.85362 11.361L6.51088 11.1986C6.10518 10.9938 5.73445 10.6478 5.55259 10.2947C5.41969 10.0405 5.25181 9.39785 5.30078 9.34841C5.31477 9.32723 5.46166 9.3696 5.62953 9.42609C6.11217 9.60264 6.17513 9.56027 5.89533 9.26367C5.37072 8.72699 5.20984 7.92902 5.46166 7.17342L5.58057 6.83446L6.04222 7.29346C6.98652 8.21854 8.09869 8.76936 9.37175 8.93178L9.72149 8.97415Z" fill="white"/>
</svg>
